<svg width="218" height="68" viewBox="0 0 218 68" fill="none" xmlns="http://www.w3.org/2000/svg">
<path d="M57.8125 21.6719H62.7578V40.0234H64.4219L73.2109 30.7188H79.6328L68.5469 42.4844L80.6172 55H73.7031L63.9766 44.9688H62.7578V55H57.8125V21.6719ZM84.1562 37.5156C84.1562 36.2656 84.4688 35.125 85.0938 34.0938C85.7344 33.0625 86.5781 32.2422 87.625 31.6328C88.6875 31.0234 89.8594 30.7188 91.1406 30.7188H96.5547V35.6406H91.1406C90.5781 35.6406 90.0938 35.8359 89.6875 36.2266C89.2969 36.6016 89.1016 37.0625 89.1016 37.6094V55H84.1562V37.5156ZM100.469 24.1094C100.469 23.2656 100.766 22.5469 101.359 21.9531C101.953 21.3594 102.672 21.0625 103.516 21.0625C104.359 21.0625 105.078 21.3594 105.672 21.9531C106.266 22.5469 106.562 23.2656 106.562 24.1094C106.562 24.9531 106.266 25.6719 105.672 26.2656C105.078 26.8594 104.359 27.1562 103.516 27.1562C102.672 27.1562 101.953 26.8594 101.359 26.2656C100.766 25.6719 100.469 24.9531 100.469 24.1094ZM101.031 30.7188H106V55H101.031V30.7188ZM111.625 21.6719H116.57V40.0234H118.234L127.023 30.7188H133.445L122.359 42.4844L134.43 55H127.516L117.789 44.9688H116.57V55H111.625V21.6719ZM136.797 39.4375C136.797 37.8281 137.188 36.3672 137.969 35.0547C138.766 33.7422 139.828 32.6953 141.156 31.9141C142.484 31.1172 143.953 30.7188 145.562 30.7188H159.109V55H154.164V35.6641H145.562C144.516 35.6641 143.617 36.0391 142.867 36.7891C142.117 37.5234 141.742 38.4219 141.742 39.4844V46.1875C141.742 47.25 142.117 48.1641 142.867 48.9297C143.617 49.6797 144.516 50.0547 145.562 50.0547H151.352V55H145.562C143.953 55 142.484 54.6094 141.156 53.8281C139.828 53.0312 138.766 51.9688 137.969 50.6406C137.188 49.3125 136.797 47.8438 136.797 46.2344V39.4375Z" fill="black"/>
<path d="M7.30364 30.5C7.30364 47.3447 40.8954 61 26.3453 61C11.7952 61 0 47.3447 0 30.5C0 13.6553 11.7952 0 26.3453 0C40.8954 0 7.30364 13.6553 7.30364 30.5Z" fill="#9593FA"/>
<path d="M43.434 30.7061C43.9647 18.8463 23.2147 7.8043 32.3888 8.42268C41.5629 9.04106 48.5698 19.1567 48.0391 31.0165C47.5084 42.8764 39.641 51.9894 30.4669 51.371C21.2928 50.7526 42.9033 42.566 43.434 30.7061Z" fill="#9593FA"/>
</svg>
